<svg width="955" height="955" fill="none" xmlns="http://www.w3.org/2000/svg"><g clip-path="url(#clip0)"><path d="M477.5 955C741.216 955 955 741.216 955 477.5S741.216 0 477.5 0 0 213.784 0 477.5 213.784 955 477.5 955z" fill="#FFD93B"/><path d="M955.001 477.5c0 263.819-213.831 477.5-477.5 477.5-150.114 0-284.113-69.237-371.704-177.719 81.921 66.253 186.225 105.796 299.78 105.796 263.67 0 477.5-213.681 477.5-477.5 0-113.556-39.543-217.86-105.796-299.781 108.333 87.592 177.72 221.59 177.72 371.704z" fill="#F4C534"/><path d="M508.179 433.242c-30.889 81.593 19.965 176.436 113.615 211.921 93.411 35.364 194.342-1.97 225.231-83.563 30.798-81.384-20.026-176.227-113.466-211.592-93.65-35.514-194.582 1.85-225.38 83.234z" fill="#F4C534"/><path d="M656.055 615.737c70.28 0 127.253-56.974 127.253-127.254 0-70.281-56.973-127.254-127.253-127.254-70.281 0-127.254 56.973-127.254 127.254 0 70.28 56.973 127.254 127.254 127.254z" fill="#fff"/><path d="M702.192 496.481c.239 41.512-33.216 74.967-74.728 74.729-41.274 0-74.968-33.217-74.968-74.729 0-41.513 33.694-74.729 74.968-74.729 41.512-.269 74.728 33.425 74.728 74.729z" fill="#3E4347"/><path d="M663.336 460.591c-7.972-7.972-18.828-10.041-24.247-4.622-5.419 5.42-3.35 16.276 4.621 24.247 7.972 7.972 18.828 10.041 24.247 4.622 5.42-5.42 3.351-16.275-4.621-24.247z" fill="#fff"/><path d="M446.822 433.241c30.888 81.593-19.966 176.437-113.615 211.921-93.411 35.365-194.343-1.97-225.231-83.563-30.829-81.383 20.025-176.227 113.436-211.592 93.679-35.514 194.611 1.851 225.41 83.234z" fill="#F4C534"/><path d="M299.035 615.737c70.28 0 127.254-56.974 127.254-127.254 0-70.281-56.974-127.254-127.254-127.254s-127.254 56.973-127.254 127.254c0 70.28 56.974 127.254 127.254 127.254z" fill="#fff"/><path d="M402.501 496.481c.239 41.512-33.216 74.967-74.729 74.729-41.304 0-74.967-33.217-74.967-74.729 0-41.513 33.693-74.729 74.967-74.729 41.513-.269 74.729 33.425 74.729 74.729z" fill="#3E4347"/><path d="M363.621 460.61c-7.972-7.972-18.827-10.041-24.247-4.621-5.419 5.419-3.35 16.275 4.622 24.246 7.971 7.972 18.827 10.041 24.246 4.622 5.42-5.42 3.351-16.275-4.621-24.247z" fill="#fff"/><path d="M796.978 238.452c-68.909 39.871-214.308 104.363-271.339-19.369-2.746-5.969 4.148-11.729 9.55-8.118 32.112 20.861 108.721 51.69 256.746 15.4 7.461-1.821 11.639 8.117 5.043 12.087zm-642.865 39.632c79.056 10.535 238.273 14.653 243.257-121.584.238-6.565-8.357-9.251-11.968-3.849-21.607 31.544-80.548 89.352-231.319 112.332-7.58 1.163-7.61 11.967.03 13.101zM677.572 828.94c-8.684-27.695-40.08-65.477-128.537-94.963-45.332-17.369-139.251-34.887-165.424-41.483 38.35-9.55 114.869-35.215 182.644-12.027 62.194 24.204 111.317 78.848 111.317 148.473z" fill="#3E4347"/></g><defs><clipPath id="clip0"><path fill="#fff" d="M0 0h955v955H0z"/></clipPath></defs></svg>