<svg width="955" height="955" fill="none" xmlns="http://www.w3.org/2000/svg"><g clip-path="url(#clip0)"><path d="M561.883 641.887l52.495-8.511c3.63-.593 7.355 0 10.615 1.703l309.695 162.218a17.024 17.024 0 018.94 17.54 17.012 17.012 0 01-13.577 14.259L286.839 954.685a17.043 17.043 0 01-13.629-3.192L21.157 758.735a17.037 17.037 0 017.63-30.354l274.54-44.421 258.556-42.073z" fill="#7D6599"/><path d="M546.898 713.425l55.865-9.126a17.015 17.015 0 0110.666 1.704l117.731 61.709a17.038 17.038 0 018.94 17.548 17.028 17.028 0 01-13.592 14.251l-422.655 82.443a17.08 17.08 0 01-13.63-3.186l-102.197-78.153a17.037 17.037 0 01-6.163-17.666 17.04 17.04 0 0113.778-12.667l140.181-22.791 211.076-34.066z" fill="#3D324C"/><path d="M40.846 462.195c2.37-2.082 27.117 10.711 29.673 11.837a584.119 584.119 0 0172.798 38.325 442.748 442.748 0 01147.744 148.521c29.829 49.673 52.413 141.974 124.515 141.974 34.54 0 73.798 1.119 100.049-25.229 32.088-32.243 32.666-79.301 42.584-120.93a1313.53 1313.53 0 01274.23-532.711 1528.14 1528.14 0 0124.54-28.614 693.95 693.95 0 0153.554-53.925c2.556-2.318 6.985-7.066 12.266-12.488a17.026 17.026 0 003.482-18.651A17.024 17.024 0 00910.348 0C801.899 3.444 543.862 60.213 398.54 496.261c0 0-221.431-153.3-357.694-34.066z" fill="#4FBA6F"/><path d="M585.906 308.895c-2.889 0-5.726-.733-8.244-2.148-8.222-4.563-11.185-14.925-6.63-23.147C657.748 127.493 761.346 74.405 765.649 72.22c8.415-4.23 18.659-.844 22.896 7.563 4.229 8.415.844 18.659-7.563 22.896-1.296.659-99.027 51.487-180.121 197.446a17.041 17.041 0 01-14.955 8.77zm-51.103 85.161a17.032 17.032 0 01-15.23-24.644l17.037-34.065a17.021 17.021 0 0114.214-9.385 17.022 17.022 0 0115.237 7.622 17.043 17.043 0 011.022 17.007l-17.036 34.065a17.025 17.025 0 01-15.244 9.4z" fill="#71C285"/></g><defs><clipPath id="clip0"><path fill="#fff" d="M0 0h955v955H0z"/></clipPath></defs></svg>