<svg version="1.1" xmlns="http://www.w3.org/2000/svg" xmlns:xlink="http://www.w3.org/1999/xlink">

    <symbol viewBox="0 0 12 20" id="facebook">
        <path d="M11 1H8.27273C7.0672 1 5.91104 1.47411 5.05861 2.31802C4.20617 3.16193 3.72727 4.30653 3.72727 5.5V8.2H1V11.8H3.72727V19H7.36364V11.8H10.0909L11 8.2H7.36364V5.5C7.36364 5.26131 7.45942 5.03239 7.6299 4.8636C7.80039 4.69482 8.03162 4.6 8.27273 4.6H11V1Z" stroke-linecap="round" stroke-linejoin="round"/>
    </symbol>

    <symbol viewBox="0 0 22 18" id="twitter">
        <path d="M21 1.00897C20.1294 1.61128 19.1656 2.07195 18.1455 2.37324C17.5979 1.75576 16.8703 1.3181 16.0609 1.11947C15.2516 0.920833 14.3995 0.970799 13.6201 1.26261C12.8406 1.55442 12.1713 2.07399 11.7027 2.75105C11.2341 3.42812 10.9888 4.23001 11 5.04827V5.93995C9.40239 5.98058 7.81934 5.63305 6.39183 4.92829C4.96431 4.22354 3.73665 3.18345 2.81818 1.90065C2.81818 1.90065 -0.818182 9.92575 7.36364 13.4925C5.49139 14.739 3.26105 15.364 1 15.2758C9.18182 19.7342 19.1818 15.2758 19.1818 5.02152C19.181 4.77315 19.1566 4.52539 19.1091 4.28143C20.0369 3.38395 20.6917 2.25082 21 1.00897Z" stroke-linecap="round" stroke-linejoin="round"/>
    </symbol>

    <symbol height="16" viewBox="0 0 22 16" id="youtube">
        <path d="M20.5813 3.19146C20.4733 2.76169 20.2534 2.36792 19.9438 2.04992C19.6341 1.73191 19.2457 1.50094 18.8178 1.38034C17.2542 1 11 1 11 1C11 1 4.74578 1 3.18222 1.41656C2.75429 1.53717 2.36588 1.76814 2.05623 2.08614C1.74659 2.40414 1.52666 2.79791 1.41868 3.22768C1.13253 4.80839 0.992553 6.41192 1.00052 8.01811C0.99032 9.63639 1.1303 11.2521 1.41868 12.8448C1.53773 13.2612 1.76258 13.64 2.0715 13.9445C2.38043 14.2491 2.76299 14.4692 3.18222 14.5834C4.74578 15 11 15 11 15C11 15 17.2542 15 18.8178 14.5834C19.2457 14.4628 19.6341 14.2319 19.9438 13.9139C20.2534 13.5959 20.4733 13.2021 20.5813 12.7723C20.8653 11.2035 21.0052 9.61221 20.9995 8.01811C21.0097 6.39983 20.8697 4.78407 20.5813 3.19146Z" stroke-linecap="round" stroke-linejoin="round"/>
        <path d="M8.95465 10.9793L14.1817 8.01811L8.95465 5.05692V10.9793Z" stroke-linecap="round" stroke-linejoin="round"/>
    </symbol>

    <symbol viewBox="0 0 20 20" id="insta">
        <path d="M14.95 5.05H14.959M5.5 1H14.5C16.9853 1 19 3.01472 19 5.5V14.5C19 16.9853 16.9853 19 14.5 19H5.5C3.01472 19 1 16.9853 1 14.5V5.5C1 3.01472 3.01472 1 5.5 1ZM13.6 9.433C13.7111 10.182 13.5831 10.947 13.2344 11.6191C12.8856 12.2912 12.3338 12.8363 11.6575 13.1767C10.9811 13.5171 10.2146 13.6356 9.46701 13.5153C8.71941 13.395 8.02878 13.0421 7.49335 12.5066C6.95793 11.9712 6.60496 11.2806 6.48466 10.533C6.36436 9.7854 6.48286 9.0189 6.82329 8.34254C7.16373 7.66617 7.70877 7.11437 8.38089 6.76562C9.05301 6.41687 9.81798 6.28893 10.567 6.4C11.331 6.5133 12.0384 6.86932 12.5845 7.41548C13.1307 7.96163 13.4867 8.66897 13.6 9.433Z" stroke-linecap="round" stroke-linejoin="round"/>
    </symbol>

    <symbol viewBox="0 0 20 20" id='phone'>
        <path d="M18.9638 14.4765V17.1862C18.9648 17.4377 18.9133 17.6867 18.8125 17.9172C18.7117 18.1477 18.5639 18.3546 18.3786 18.5247C18.1932 18.6947 17.9743 18.8242 17.736 18.9048C17.4978 18.9854 17.2452 19.0153 16.9947 18.9927C14.2153 18.6907 11.5455 17.7409 9.19974 16.2197C7.01735 14.8329 5.16706 12.9827 3.78028 10.8003C2.25379 8.44389 1.30381 5.76107 1.00733 2.96915C0.98476 2.71938 1.01444 2.46764 1.09449 2.22996C1.17454 1.99229 1.30321 1.77389 1.47229 1.58866C1.64137 1.40343 1.84717 1.25544 2.07658 1.15411C2.30599 1.05278 2.55399 1.00032 2.80478 1.00009H5.51451C5.95286 0.995773 6.37782 1.151 6.71019 1.43683C7.04255 1.72267 7.25964 2.11961 7.32099 2.55366C7.43536 3.42084 7.64747 4.27229 7.95326 5.09177C8.07479 5.41507 8.10109 5.76642 8.02905 6.1042C7.95701 6.44198 7.78965 6.75203 7.5468 6.99761L6.39969 8.14473C7.6855 10.406 9.55783 12.2784 11.8191 13.5642L12.9663 12.4171C13.2118 12.1742 13.5219 12.0069 13.8597 11.9348C14.1975 11.8628 14.5488 11.8891 14.8721 12.0106C15.6916 12.3164 16.543 12.5285 17.4102 12.6429C17.849 12.7048 18.2497 12.9258 18.5361 13.2639C18.8226 13.6019 18.9748 14.0335 18.9638 14.4765Z" stroke-linecap="round" stroke-linejoin="round"/>
    </symbol>

    <symbol viewBox="0 0 27 28" id="main-item1">
        <path d="M13.5 6.2V14L18.5 16.6M26 14C26 21.1797 20.4036 27 13.5 27C6.59644 27 1 21.1797 1 14C1 6.8203 6.59644 1 13.5 1C20.4036 1 26 6.8203 26 14Z" stroke-linecap="round" stroke-linejoin="round"/>
    </symbol>

    <symbol viewBox="0 0 25 30" id="main-item2">
        <path d="M24 12.4545C24 21.3636 12.5 29 12.5 29C12.5 29 1 21.3636 1 12.4545C1 9.41661 2.2116 6.5031 4.36827 4.35496C6.52494 2.20681 9.45001 1 12.5 1C15.55 1 18.4751 2.20681 20.6317 4.35496C22.7884 6.5031 24 9.41661 24 12.4545Z"  stroke-linecap="round" stroke-linejoin="round"/>
        <path d="M12.5 16.2727C14.6171 16.2727 16.3333 14.5633 16.3333 12.4545C16.3333 10.3458 14.6171 8.63636 12.5 8.63636C10.3829 8.63636 8.66667 10.3458 8.66667 12.4545C8.66667 14.5633 10.3829 16.2727 12.5 16.2727Z"  stroke-linecap="round" stroke-linejoin="round"/>
    </symbol>

    <symbol viewBox="0 0 25 28" id="main-item3">
        <path d="M17.6111 1V6.2M7.38889 1V6.2M1 11.4H24M3.55556 3.6H21.4444C22.8558 3.6 24 4.76406 24 6.2V24.4C24 25.8359 22.8558 27 21.4444 27H3.55556C2.14416 27 1 25.8359 1 24.4V6.2C1 4.76406 2.14416 3.6 3.55556 3.6Z" stroke-linecap="round" stroke-linejoin="round"/>
    </symbol>

    <symbol viewBox="0 0 27 27" id="author-icon">
        <path d="M1 12.8421L26 1L14.1579 26L11.5263 15.4737L1 12.8421Z" stroke-linecap="round" stroke-linejoin="round"/>
    </symbol>

    <symbol viewBox="0 0 34 44" id="download-doc">
        <path fill-rule="evenodd" clip-rule="evenodd" d="M25.8149 2.61275e-07H6.16315C5.6344 2.61275e-07 5.12731 0.210048 4.75342 0.583932C4.37954 0.957816 4.16949 1.46491 4.16949 1.99366V6.99805H3.77087C1.68827 6.99805 0 8.68632 0 10.7689V12.5347C0 14.6173 1.68827 16.3056 3.77087 16.3056H4.16949V36.558C4.16949 37.0868 4.37954 37.5939 4.75342 37.9678C5.12731 38.3416 5.6344 38.5517 6.16315 38.5517H10.4723C10.6234 38.5517 10.7683 38.4917 10.8751 38.3849C10.9819 38.278 11.0419 38.1331 11.0419 37.9821V37.1277C11.0419 36.9766 10.9819 36.8317 10.8751 36.7249C10.7683 36.618 10.6234 36.558 10.4723 36.558H6.15461V16.3056H16.2227C18.3053 16.3056 19.9936 14.6173 19.9936 12.5347V10.7689C19.9936 8.68632 18.3053 6.99805 16.2227 6.99805H6.15461V1.99366H23.8469V8.43034C23.8469 8.95909 24.057 9.46618 24.4308 9.84007C24.8047 10.214 25.3118 10.424 25.8406 10.424H31.6136V36.5523H26.8972C26.7461 36.5523 26.6013 36.6123 26.4944 36.7192C26.3876 36.826 26.3276 36.9709 26.3276 37.122V37.9764C26.3276 38.1274 26.3876 38.2723 26.4944 38.3792C26.6013 38.486 26.7461 38.546 26.8972 38.546H31.6136C31.8755 38.546 32.1347 38.4944 32.3766 38.3942C32.6185 38.294 32.8382 38.1472 33.0234 37.9621C33.2085 37.7769 33.3554 37.5572 33.4555 37.3153C33.5557 37.0734 33.6073 36.8141 33.6073 36.5523V8.60977C33.6081 8.12455 33.4319 7.65571 33.1117 7.2911L27.3187 0.683543C27.1315 0.46876 26.9004 0.296612 26.641 0.178701C26.3816 0.0607895 26.0999 -0.000145608 25.8149 2.61275e-07ZM25.8463 8.43034V2.03923L31.4456 8.43034H25.8463ZM3.26172 9.23312V14.2173L4.28703 14.2201V12.2464H5.44051C5.90183 12.2703 6.35527 12.1199 6.71076 11.8249C6.85895 11.6853 6.97703 11.517 7.05774 11.3301C7.13845 11.1433 7.18009 10.9419 7.18009 10.7383C7.18009 10.5348 7.13845 10.3334 7.05774 10.1465C6.97703 9.95969 6.85895 9.79132 6.71076 9.65178C6.35485 9.35782 5.90145 9.20838 5.44051 9.23312H3.26172ZM5.36931 11.3692H4.28703V10.1303H5.36931C5.87057 10.1303 6.15538 10.3496 6.15538 10.7483C6.15538 11.147 5.86203 11.3692 5.36931 11.3692ZM7.95508 14.218V9.23387H9.82058C10.5429 9.20383 11.2489 9.4538 11.7915 9.93165C12.0415 10.1572 12.2393 10.4346 12.3712 10.7445C12.503 11.0544 12.5656 11.3894 12.5547 11.7259C12.5653 12.0633 12.5026 12.399 12.3708 12.7098C12.239 13.0205 12.0413 13.299 11.7915 13.5259C11.2482 14.002 10.5422 14.2499 9.82058 14.218H7.95508ZM8.98039 13.2981H9.73513C10.8459 13.2981 11.5009 12.7285 11.5009 11.7259C11.5009 10.7234 10.8459 10.151 9.73513 10.151H8.98039V13.2981ZM13.4775 9.2334V14.2176H14.5028V12.0672H16.5335V11.1616H14.5028V10.1505H17.1316V9.2334H13.4775Z" />
        <path d="M24.7782 38.7167L19.0649 43.8176C18.9604 43.9113 18.825 43.9631 18.6847 43.9631C18.5444 43.9631 18.409 43.9113 18.3045 43.8176L12.5884 38.7167C12.5013 38.6399 12.4397 38.5383 12.412 38.4256C12.3843 38.3128 12.3916 38.1943 12.4332 38.0858C12.4747 37.9774 12.5484 37.8842 12.6443 37.8188C12.7403 37.7534 12.8539 37.7189 12.97 37.7199H14.6134C14.7644 37.7199 14.9093 37.6599 15.0161 37.5531C15.123 37.4462 15.183 37.3013 15.183 37.1503V29.9446C15.183 29.7935 15.243 29.6487 15.3498 29.5418C15.4566 29.435 15.6015 29.375 15.7526 29.375H21.6111C21.7622 29.375 21.9071 29.435 22.0139 29.5418C22.1207 29.6487 22.1807 29.7935 22.1807 29.9446V37.1503C22.1807 37.3013 22.2407 37.4462 22.3476 37.5531C22.4544 37.6599 22.5993 37.7199 22.7503 37.7199H24.3965C24.5127 37.7189 24.6263 37.7534 24.7223 37.8188C24.8182 37.8842 24.8919 37.9774 24.9334 38.0858C24.9749 38.1943 24.9823 38.3128 24.9546 38.4256C24.9268 38.5383 24.8653 38.6399 24.7782 38.7167Z" />
        <path d="M26.9453 21.3261H10.8223C10.5511 21.3261 10.291 21.2184 10.0993 21.0266C9.90753 20.8349 9.79981 20.5748 9.79981 20.3036C9.79943 20.1691 9.8256 20.0359 9.87682 19.9115C9.92804 19.7871 10.0033 19.674 10.0983 19.5788C10.1933 19.4836 10.3061 19.408 10.4303 19.3564C10.5546 19.3049 10.6878 19.2783 10.8223 19.2783H26.9453C27.2167 19.2791 27.4768 19.3874 27.6684 19.5796C27.8601 19.7718 27.9677 20.0322 27.9677 20.3036C27.9677 20.5748 27.86 20.8349 27.6683 21.0266C27.4765 21.2184 27.2165 21.3261 26.9453 21.3261Z"/>
        <path d="M26.9453 25.6846H10.8223C10.6878 25.6846 10.5546 25.658 10.4303 25.6065C10.3061 25.5549 10.1933 25.4793 10.0983 25.3841C10.0033 25.2889 9.92804 25.1758 9.87682 25.0514C9.8256 24.927 9.79943 24.7938 9.79981 24.6593C9.80056 24.3886 9.90862 24.1292 10.1003 23.9381C10.292 23.747 10.5516 23.6396 10.8223 23.6396H26.9453C27.2165 23.6396 27.4765 23.7474 27.6683 23.9391C27.86 24.1309 27.9677 24.3909 27.9677 24.6621C27.967 24.9331 27.859 25.1927 27.6674 25.3843C27.4759 25.5759 27.2162 25.6838 26.9453 25.6846Z" />
    </symbol>

    <symbol viewBox="0 0 18 18" id="close-menu-icon">
        <g clip-path="url(#clip0)"><path d="M10.0551 9.00517L17.771 1.28931C18.0688 1.0017 18.077 0.527154 17.7894 0.229355C17.5018 -0.0684448 17.0272 -0.0767024 16.7294 0.210907C16.7232 0.216924 16.7171 0.223074 16.711 0.229355L8.99508 7.94522L1.27921 0.229311C0.981408 -0.0582986 0.506861 -0.050041 0.219251 0.247758C-0.0613304 0.538267 -0.0613304 0.998802 0.219251 1.28931L7.93512 9.00517L0.219251 16.721C-0.0734093 17.0137 -0.0734093 17.4883 0.219251 17.781C0.511956 18.0736 0.986503 18.0736 1.27921 17.781L8.99508 10.0651L16.711 17.781C17.0088 18.0686 17.4833 18.0603 17.7709 17.7625C18.0514 17.472 18.0514 17.0115 17.7709 16.721L10.0551 9.00517Z" /></g><defs><clipPath id="clip0"><rect width="18" height="18" /></clipPath></defs>
    </symbol>

    <symbol viewBox="0 0 36 36" id="close-modal">
        <path d="M18 0C8.07497 0 0 8.07497 0 18C0 27.925 8.07497 36 18 36C27.925 36 36 27.925 36 18C36 8.07497 27.925 0 18 0ZM25.2802 23.1591C25.5731 23.452 25.5731 23.9269 25.2802 24.2198L24.2198 25.2802C23.9269 25.573 23.4521 25.573 23.1591 25.2802L18 20.1211L12.8409 25.2802C12.5479 25.5731 12.0731 25.5731 11.7802 25.2802L10.7198 24.2198C10.4268 23.9269 10.4268 23.452 10.7198 23.1591L15.8789 17.9999L10.7198 12.8408C10.4268 12.548 10.4268 12.0731 10.7198 11.7802L11.7802 10.7197C12.0731 10.4269 12.5479 10.4269 12.8409 10.7197L18 15.8788L23.1591 10.7197C23.4521 10.4269 23.9269 10.4269 24.2198 10.7197L25.2802 11.7802C25.5732 12.073 25.5732 12.5479 25.2802 12.8408L20.1211 17.9999L25.2802 23.1591Z" />
    </symbol>

    <!-- <symbol viewBox="0 0 217 198" id="arrow-up">
        <path d="M105.16 1.38485L1.37763 105.09C0.493119 105.976 -0.00220685 107.177 4.48527e-06 108.428L8.19417e-06 193.278C-0.0048565 195.881 2.10382 197.995 4.70914 198C5.96515 198.002 7.17029 197.504 8.05745 196.615L108.5 96.2377L208.943 196.615C210.782 198.458 213.769 198.462 215.614 196.623C216.503 195.737 217.002 194.533 217 193.278L217 108.428C217.002 107.177 216.507 105.976 215.622 105.09L111.84 1.38485C110 -0.458419 107.013 -0.46196 105.168 1.37645C105.166 1.37955 105.163 1.3822 105.16 1.38485Z" />
    </symbol> -->

    <svg viewBox="0 0 45 45" fill="none" id="plus">
        <path d="M30.9933 24.13H23.3933V31.53H21.5933V24.13H13.9933V22.41H21.5933V14.97H23.3933V22.41H30.9933V24.13Z" fill="white"/>
        <rect x="0.5" y="0.5" width="44" height="44" rx="4.5" stroke="white"/>
    </svg>

    <symbol viewBox="0 0 24 24" id="arrow-up">
        <path d="M7.33 24l-2.83-2.829 9.339-9.175-9.339-9.167 2.83-2.829 12.17 11.996z"/>
    </symbol>
</svg>