<svg width="955" height="955" viewBox="0 0 955 955" fill="none" xmlns="http://www.w3.org/2000/svg">
<g clip-path="url(#clip0)">
<path d="M477.5 955C741.216 955 955 741.216 955 477.5C955 213.784 741.216 0 477.5 0C213.784 0 0 213.784 0 477.5C0 741.216 213.784 955 477.5 955Z" fill="#FFD93B"/>
<path d="M955.001 477.5C955.001 741.319 741.17 955 477.501 955C327.387 955 193.388 885.763 105.797 777.281C187.718 843.534 292.022 883.077 405.577 883.077C669.247 883.077 883.077 669.396 883.077 405.577C883.077 292.021 843.534 187.717 777.281 105.796C885.614 193.388 955.001 327.386 955.001 477.5Z" fill="#F4C534"/>
<path d="M508.179 433.242C477.29 514.835 528.144 609.678 621.794 645.163C715.205 680.527 816.136 643.193 847.025 561.6C877.823 480.216 826.999 385.373 733.559 350.008C639.909 314.494 538.977 351.858 508.179 433.242Z" fill="#F4C534"/>
<path d="M656.055 615.737C726.335 615.737 783.308 558.763 783.308 488.483C783.308 418.202 726.335 361.229 656.055 361.229C585.774 361.229 528.801 418.202 528.801 488.483C528.801 558.763 585.774 615.737 656.055 615.737Z" fill="white"/>
<path d="M702.192 496.481C702.431 537.993 668.976 571.448 627.464 571.21C586.19 571.21 552.496 537.993 552.496 496.481C552.496 454.968 586.19 421.752 627.464 421.752C668.976 421.483 702.192 455.177 702.192 496.481Z" fill="#3E4347"/>
<path d="M663.336 460.591C655.364 452.619 644.508 450.55 639.089 455.969C633.67 461.389 635.739 472.245 643.71 480.216C651.682 488.188 662.538 490.257 667.957 484.838C673.377 479.418 671.308 468.563 663.336 460.591Z" fill="white"/>
<path d="M446.822 433.241C477.71 514.834 426.856 609.678 333.207 645.162C239.796 680.527 138.864 643.192 107.976 561.599C77.1473 480.216 128.001 385.372 221.412 350.007C315.091 314.493 416.023 351.858 446.822 433.241Z" fill="#F4C534"/>
<path d="M299.035 615.737C369.315 615.737 426.289 558.763 426.289 488.483C426.289 418.202 369.315 361.229 299.035 361.229C228.755 361.229 171.781 418.202 171.781 488.483C171.781 558.763 228.755 615.737 299.035 615.737Z" fill="white"/>
<path d="M402.501 496.481C402.74 537.993 369.285 571.448 327.772 571.21C286.468 571.21 252.805 537.993 252.805 496.481C252.805 454.968 286.498 421.752 327.772 421.752C369.285 421.483 402.501 455.177 402.501 496.481Z" fill="#3E4347"/>
<path d="M363.621 460.61C355.649 452.638 344.794 450.569 339.374 455.989C333.955 461.408 336.024 472.264 343.996 480.235C351.967 488.207 362.823 490.276 368.242 484.857C373.662 479.437 371.593 468.582 363.621 460.61Z" fill="white"/>
<path d="M796.978 238.452C728.069 278.323 582.67 342.815 525.639 219.083C522.893 213.114 529.787 207.354 535.189 210.965C567.301 231.826 643.91 262.655 791.935 226.365C799.396 224.544 803.574 234.482 796.978 238.452Z" fill="#3E4347"/>
<path d="M154.113 278.084C233.169 288.619 392.386 292.737 397.37 156.5C397.608 149.935 389.013 147.249 385.402 152.651C363.795 184.195 304.854 242.003 154.083 264.983C146.503 266.146 146.473 276.95 154.113 278.084Z" fill="#3E4347"/>
<path d="M677.572 828.94C668.888 801.245 637.492 763.463 549.035 733.977C503.703 716.608 409.784 699.09 383.611 692.494C421.961 682.944 498.48 657.279 566.255 680.467C628.449 704.671 677.572 759.315 677.572 828.94Z" fill="#3E4347"/>
</g>
<defs>
<clipPath id="clip0">
<rect width="955" height="955" fill="white"/>
</clipPath>
</defs>
</svg>
