<svg width="955" height="955" viewBox="0 0 955 955" fill="none" xmlns="http://www.w3.org/2000/svg">
<g clip-path="url(#clip0)">
<path d="M561.883 641.887L614.378 633.376C618.008 632.783 621.733 633.376 624.993 635.079L934.688 797.297C941.088 800.653 944.673 807.682 943.628 814.837C942.591 821.993 937.147 827.711 930.051 829.096L286.839 954.685C282.046 955.619 277.091 954.463 273.21 951.493L21.1571 758.735C15.7499 754.602 13.3203 747.647 14.9795 741.047C16.6387 734.447 22.0682 729.462 28.7865 728.381L303.327 683.96L561.883 641.887Z" fill="#7D6599"/>
<path d="M546.898 713.425L602.763 704.299C606.407 703.692 610.148 704.292 613.429 706.003L731.16 767.712C737.559 771.068 741.144 778.105 740.1 785.26C739.056 792.415 733.604 798.126 726.508 799.511L303.853 881.954C299.068 882.887 294.105 881.731 290.223 878.768L188.026 800.615C182.634 796.489 180.212 789.541 181.863 782.949C183.515 776.356 188.937 771.379 195.641 770.282L335.822 747.491L546.898 713.425Z" fill="#3D324C"/>
<path d="M40.8457 462.195C43.216 460.113 67.9635 472.906 70.519 474.032C95.6516 485.083 119.984 497.883 143.317 512.357C203.738 549.333 254.403 600.265 291.061 660.878C320.89 710.551 343.474 802.852 415.576 802.852C450.116 802.852 489.374 803.971 515.625 777.623C547.713 745.38 548.291 698.322 558.209 656.693C607.356 460.365 701.213 278.059 832.439 123.982C840.498 114.345 848.683 104.805 856.979 95.3678C873.83 76.4276 891.711 58.4281 910.533 41.4434C913.089 39.1249 917.518 34.3769 922.799 28.9548C927.636 24.0216 929.014 16.6515 926.281 10.3035C923.555 3.95553 917.259 -0.118439 910.348 7.67282e-05C801.899 3.44443 543.862 60.2133 398.54 496.261C398.54 496.261 177.109 342.961 40.8457 462.195V462.195Z" fill="#4FBA6F"/>
<path d="M585.906 308.895C583.017 308.895 580.18 308.162 577.662 306.747C569.44 302.184 566.477 291.822 571.032 283.6C657.748 127.493 761.346 74.4054 765.649 72.2203C774.064 67.9908 784.308 71.3759 788.545 79.783C792.774 88.1976 789.389 98.4418 780.982 102.679C779.686 103.338 681.955 154.166 600.861 300.125C597.846 305.555 592.113 308.918 585.906 308.895Z" fill="#71C285"/>
<path d="M534.803 394.056C528.899 394.056 523.425 390.997 520.321 385.982C517.218 380.96 516.936 374.694 519.573 369.412L536.61 335.347C539.328 329.902 544.75 326.325 550.824 325.962C556.906 325.599 562.713 328.502 566.061 333.584C569.416 338.665 569.802 345.146 567.083 350.591L550.047 384.656C547.158 390.426 541.254 394.063 534.803 394.056Z" fill="#71C285"/>
</g>
<defs>
<clipPath id="clip0">
<rect width="955" height="955" fill="white"/>
</clipPath>
</defs>
</svg>
